Coordinates
version=1
nRows=17
nColumns=40
inDegrees=yes

Units are S.I. units (second, meters, Newtons, ...)
If the header above contains a line with 'inDegrees', this indicates whether rotational values are in degrees (yes) or radians (no).

endheader
time	pelvis_tilt	pelvis_list	pelvis_rotation	pelvis_tx	pelvis_ty	pelvis_tz	hip_flexion_r	hip_adduction_r	hip_rotation_r	knee_angle_r	knee_angle_r_beta	ankle_angle_r	subtalar_angle_r	mtp_angle_r	hip_flexion_l	hip_adduction_l	hip_rotation_l	knee_angle_l	knee_angle_l_beta	ankle_angle_l	subtalar_angle_l	mtp_angle_l	lumbar_extension	lumbar_bending	lumbar_rotation	arm_flex_r	arm_add_r	arm_rot_r	elbow_flex_r	pro_sup_r	wrist_flex_r	wrist_dev_r	arm_flex_l	arm_add_l	arm_rot_l	elbow_flex_l	pro_sup_l	wrist_flex_l	wrist_dev_l
      9.97500000	     88.73919355	     66.87593349	     89.05683031	      0.38033582	      0.61670402	      0.83339120	     52.12783381	     -9.96178962	     -7.35334705	     25.21339694	      0.44005679	     -3.03748836	      0.00000000	      0.00000000	     47.54519072	    -15.18855939	    -14.35787897	     19.06029545	      0.33266491	     -5.43309836	      0.00000000	      0.00000000	    -29.33694115	     -7.64383173	      3.57577194	     39.11005622	     -1.19198965	      3.69209858	     10.85391851	     36.11378455	      0.00000000	      0.00000000	     38.55874761	     -0.54201968	    -26.04638483	     18.55316060	     36.41273877	      0.00000000	      0.00000000
      9.98000000	     88.74492784	     66.62265010	     89.05763218	      0.38125520	      0.61677211	      0.83274840	     52.47516988	     -9.96789086	     -7.38658339	     25.23739230	      0.44047559	     -3.08500750	      0.00000000	      0.00000000	     47.90838192	    -15.20134711	    -14.34236140	     19.09611637	      0.33329010	     -5.45590540	      0.00000000	      0.00000000	    -29.37113126	     -7.66081618	      3.57612474	     39.37179761	     -1.17256894	      3.42964283	     10.84424688	     35.93482690	      0.00000000	      0.00000000	     39.01597369	     -0.49941075	    -26.43426249	     18.24075723	     36.26252902	      0.00000000	      0.00000000
      9.98500000	     88.74456884	     66.41726041	     89.04170705	      0.38222408	      0.61688461	      0.83218127	     52.77304846	     -9.94975130	     -7.37135962	     25.23208829	      0.44038302	     -3.22867507	      0.00000000	      0.00000000	     48.21226795	    -15.23502990	    -14.34826991	     19.12370612	      0.33377164	     -5.55138146	      0.00000000	      0.00000000	    -29.45996230	     -7.69778103	      3.56570928	     39.64194356	     -1.19628177	      3.73620874	     10.80655916	     36.07301631	      0.00000000	      0.00000000	     39.08655018	     -0.54882601	    -25.92812073	     18.48228351	     36.43657935	      0.00000000	      0.00000000
      9.99000000	     88.74074638	     66.17957180	     89.03869093	      0.38313691	      0.61701371	      0.83156926	     53.11145714	     -9.93954084	     -7.36369672	     25.26657298	      0.44098489	     -3.31446299	      0.00000000	      0.00000000	     48.56156511	    -15.26692530	    -14.36323588	     19.16729351	      0.33453238	     -5.63560442	      0.00000000	      0.00000000	    -29.52869505	     -7.73442609	      3.50821209	     39.90205850	     -1.14124186	      3.73389585	     10.80679236	     36.08076701	      0.00000000	      0.00000000	     39.24739840	     -0.67883464	    -25.73590050	     18.48027659	     36.44279315	      0.00000000	      0.00000000
      9.99500000	     88.71613607	     66.08745794	     89.02643028	      0.38408349	      0.61720057	      0.83115332	     53.29010583	     -9.91612319	     -7.34403913	     25.27282167	      0.44109395	     -3.28645368	      0.00000000	      0.00000000	     48.72510755	    -15.30975632	    -14.41002672	     19.17366147	      0.33464352	     -5.69064915	      0.00000000	      0.00000000	    -29.72077239	     -7.87249273	      3.79948347	     39.31228287	     -1.88261576	      5.95575142	     12.01682948	     37.67032638	      0.00000000	      0.00000000	     38.43476589	     -1.21163056	    -20.37615754	     19.42278952	     38.06060295	      0.00000000	      0.00000000
     10.00000000	     88.70926134	     65.81430785	     89.00630611	      0.38485390	      0.61733268	      0.83059825	     53.64130869	     -9.90450410	     -7.40748611	     25.26205754	      0.44090608	     -3.49717901	      0.00000000	      0.00000000	     49.05890608	    -15.34157619	    -14.43975924	     19.14523964	      0.33414747	     -5.85121714	      0.00000000	      0.00000000	    -29.78170751	     -7.84390501	      3.57387261	     40.44395953	     -1.12005458	      3.10289532	     10.81592867	     35.74215450	      0.00000000	      0.00000000	     40.03311936	     -0.61613453	    -26.09809383	     18.19503550	     36.06815462	      0.00000000	      0.00000000
     10.00500000	     88.75127022	     65.68813913	     89.01761291	      0.38584103	      0.61736597	      0.83007557	     53.88082964	     -9.95320129	     -7.52325367	     25.35134974	      0.44246452	     -3.57107873	      0.00000000	      0.00000000	     49.33253912	    -15.34673863	    -14.40440270	     19.22658519	      0.33556722	     -5.91659208	      0.00000000	      0.00000000	    -29.93748489	     -7.90479550	      3.76827691	     39.66063859	     -1.86616370	      5.48780180	     12.31354925	     37.54722043	      0.00000000	      0.00000000	     38.99400804	     -1.22142384	    -20.26411037	     19.44801880	     37.91075364	      0.00000000	      0.00000000
     10.01000000	     88.69698693	     65.50020575	     88.94899742	      0.38678057	      0.61768341	      0.82960453	     54.13034968	     -9.84122621	     -7.36685058	     25.26244920	      0.44091292	     -3.70344260	      0.00000000	      0.00000000	     49.55770206	    -15.43918363	    -14.50043327	     19.20312125	      0.33515769	     -6.01040804	      0.00000000	      0.00000000	    -30.03810132	     -8.03712472	      3.86816324	     39.99513141	     -2.03453251	      6.93662230	     12.04949262	     38.22957906	      0.00000000	      0.00000000	     38.67315426	     -1.53297821	    -18.06424009	     20.23672824	     38.71792742	      0.00000000	      0.00000000
     10.01500000	     88.67305786	     65.15075575	     88.95593229	      0.38752229	      0.61772502	      0.82892494	     54.55297702	     -9.82860927	     -7.34956013	     25.23848189	      0.44049461	     -3.83956579	      0.00000000	      0.00000000	     49.95531752	    -15.43307587	    -14.48985860	     19.12674853	      0.33382474	     -6.16070528	      0.00000000	      0.00000000	    -30.01563803	     -8.01304360	      3.64157506	     41.60540483	     -0.79864751	      0.72887231	     10.42841514	     33.47830365	      0.00000000	      0.00000000	     40.50903201	     -0.70491950	    -24.78789535	     18.73770421	     33.73191654	      0.00000000	      0.00000000
     10.02000000	     88.69467788	     64.95796863	     88.95055773	      0.38836114	      0.61777944	      0.82837996	     54.81826037	     -9.83340906	     -7.41649998	     25.23397520	      0.44041595	     -3.95280097	      0.00000000	      0.00000000	     50.22999969	    -15.43556759	    -14.43900691	     19.11276721	      0.33358072	     -6.26643980	      0.00000000	      0.00000000	    -30.11821958	     -8.01461953	      3.60347239	     41.60583647	     -0.99196877	      2.13814630	     10.69646845	     34.58414729	      0.00000000	      0.00000000	     40.86431965	     -0.63599372	    -25.05847157	     18.63601566	     34.96200031	      0.00000000	      0.00000000
     10.02500000	     88.65079364	     64.75538490	     88.92830598	      0.38929419	      0.61798812	      0.82778154	     55.11500057	     -9.77520769	     -7.35051683	     25.22642878	      0.44028424	     -4.09914308	      0.00000000	      0.00000000	     50.50379721	    -15.48502132	    -14.47629646	     19.11442654	      0.33360968	     -6.35332137	      0.00000000	      0.00000000	    -30.18168358	     -8.12861522	      3.66269724	     41.59464761	     -1.27742063	      4.16987872	     10.85993174	     36.06404427	      0.00000000	      0.00000000	     40.13807752	     -1.04061627	    -21.89713887	     19.70648052	     36.56735705	      0.00000000	      0.00000000
     10.03000000	     88.61998463	     64.71757783	     88.83719357	      0.39010474	      0.61838444	      0.82751661	     55.24607003	     -9.69957942	     -7.41719841	     25.23046872	      0.44035475	     -4.18734666	      0.00000000	      0.00000000	     50.58521586	    -15.60182793	    -14.60807368	     19.14228423	      0.33409589	     -6.38588425	      0.00000000	      0.00000000	    -30.45484978	     -8.29538772	      3.88955030	     41.38374407	     -1.67591135	      5.66589070	     11.53961487	     37.27416065	      0.00000000	      0.00000000	     39.95520291	     -1.41829466	    -18.92504143	     20.09135392	     37.81500258	      0.00000000	      0.00000000
     10.03500000	     88.65496357	     64.29620169	     88.85147328	      0.39091894	      0.61834454	      0.82663944	     55.73728544	     -9.72787283	     -7.47574599	     25.24084337	      0.44053582	     -4.28066263	      0.00000000	      0.00000000	     51.10327854	    -15.56745978	    -14.46236509	     19.09631332	      0.33329354	     -6.51447325	      0.00000000	      0.00000000	    -30.33880606	     -8.21595134	      3.67269398	     42.19963101	     -1.04087860	      2.48643598	     10.86114630	     35.97277535	      0.00000000	      0.00000000	     41.77349570	     -0.65965530	    -25.17346167	     18.38012895	     36.57064163	      0.00000000	      0.00000000
     10.04000000	     88.64368758	     64.16976906	     88.82526198	      0.39174485	      0.61838432	      0.82627274	     55.90222185	     -9.68805466	     -7.44665770	     25.16003207	      0.43912540	     -4.40235365	      0.00000000	      0.00000000	     51.27124693	    -15.58374977	    -14.46070340	     19.04809617	      0.33245199	     -6.58566513	      0.00000000	      0.00000000	    -30.53929578	     -8.26040493	      3.67378261	     42.63163671	     -0.94365649	      1.81869826	     10.70839245	     35.42545246	      0.00000000	      0.00000000	     42.03767361	     -0.67311048	    -25.07145143	     18.46946849	     36.08386071	      0.00000000	      0.00000000
     10.04500000	     88.58502900	     64.07549979	     88.77135742	      0.39262572	      0.61860407	      0.82588684	     56.06168723	     -9.59032520	     -7.33152994	     25.09593806	      0.43800675	     -4.49227195	      0.00000000	      0.00000000	     51.40807433	    -15.66556241	    -14.54586601	     19.04570512	      0.33241026	     -6.66941296	      0.00000000	      0.00000000	    -30.73158353	     -8.42018833	      3.84350194	     42.54210344	     -1.34462902	      3.95309555	     11.03800330	     36.73974444	      0.00000000	      0.00000000	     41.15290270	     -1.11496050	    -21.05362247	     19.78963149	     37.46021295	      0.00000000	      0.00000000
     10.05000000	     88.61237225	     63.83130867	     88.77535930	      0.39334750	      0.61856006	      0.82528318	     56.36031494	     -9.61844329	     -7.44524636	     25.09131262	      0.43792602	     -4.56958105	      0.00000000	      0.00000000	     51.75561775	    -15.65740932	    -14.51093290	     19.08177152	      0.33303974	     -6.74804667	      0.00000000	      0.00000000	    -30.80951641	     -8.37022089	      3.70324986	     43.13665255	     -0.96346309	      1.74155780	     10.76562731	     35.48457491	      0.00000000	      0.00000000	     42.66759172	     -0.64896900	    -25.17949950	     18.36056154	     36.20714578	      0.00000000	      0.00000000
     10.05500000	     88.57784789	     63.66527881	     88.75452466	      0.39424636	      0.61869101	      0.82474576	     56.61334501	     -9.57186407	     -7.38233570	     25.08356685	      0.43779083	     -4.61639765	      0.00000000	      0.00000000	     51.99411326	    -15.70096141	    -14.53052098	     19.09757798	      0.33331561	     -6.78734534	      0.00000000	      0.00000000	    -30.94474803	     -8.47226251	      3.77795020	     43.17195505	     -1.21303303	      3.08767936	     10.99842218	     36.38722111	      0.00000000	      0.00000000	     42.02598069	     -1.05645639	    -22.08199001	     19.30972093	     37.10049267	      0.00000000	      0.00000000
